<svg width="500" height="500" viewBox="0 0 500 500" fill="none" xmlns="http://www.w3.org/2000/svg">
<path d="M500 250C500 299.445 485.338 347.78 457.867 388.893C430.397 430.005 391.352 462.048 345.671 480.97C299.989 499.892 249.723 504.843 201.227 495.196C152.732 485.55 108.186 461.74 73.2233 426.777C38.2602 391.814 14.45 347.268 4.80368 298.773C-4.84263 250.277 0.108209 200.011 19.0301 154.329C37.952 108.648 69.9952 69.603 111.107 42.1326C152.22 14.6622 200.555 -5.8963e-07 250 0V179.289C236.015 179.289 222.344 183.436 210.715 191.206C199.087 198.976 190.024 210.02 184.672 222.94C179.32 235.861 177.92 250.078 180.648 263.795C183.376 277.512 190.111 290.111 200 300C209.889 309.889 222.488 316.624 236.205 319.352C249.922 322.08 264.139 320.68 277.06 315.328C289.98 309.976 301.024 300.913 308.794 289.285C316.564 277.656 320.711 263.985 320.711 250H500Z" fill="#D03C3C"/>
</svg>
